<svg width="1919" height="1357" viewBox="0 0 1919 1357" fill="none" xmlns="http://www.w3.org/2000/svg">
<g clip-path="url(#clip0_1106_47)">
<path d="M493.711 820.381C495.154 817.976 494.579 804.681 494.112 798.334C493.577 795.728 492.348 788.753 491.706 781.698C490.905 772.879 484.892 774.883 473.668 771.276C462.443 767.668 445.407 776.888 425.364 788.112C405.321 799.336 411.333 807.353 404.318 815.371C397.303 823.388 353.409 826.394 350.202 826.996C346.995 827.597 348.999 829.601 356.415 833.81C363.831 838.019 363.631 861.47 361.426 877.304C359.662 889.971 346.794 916.121 340.581 927.612C387.348 905.832 481.324 861.911 483.088 860.468C485.292 858.664 486.295 839.222 486.295 832.808C486.295 826.394 491.907 823.388 493.711 820.381Z" fill="#C25709"/>
<path d="M1207.08 273.924L857.519 273.386L853.751 644.027L846.042 659.977C862.059 660.8 864.438 660.509 879.538 661.572C898.412 662.902 915.16 659.977 922.604 657.319C930.047 654.661 933.769 649.61 940.946 649.876C948.124 650.141 966.201 657.585 972.05 658.648C977.898 659.712 1002.09 658.117 1004.75 657.053C1007.41 655.99 1007.94 650.141 1016.18 649.876C1024.42 649.61 1018.64 654.795 1024.71 656.01C1030.79 657.225 1032 653.579 1039.29 652.364C1046.59 651.149 1069.07 652.972 1075.75 650.541C1082.43 648.111 1086.69 654.187 1089.73 657.833C1092.76 661.478 1089.73 674.845 1095.8 673.023C1100.66 671.564 1105.68 659.845 1104.87 654.174C1111.35 654.782 1121.2 655.888 1130.43 655.402C1139.67 654.916 1154.94 649.934 1161.42 647.503C1168.71 649.326 1184.88 652.121 1191.19 648.719C1197.51 645.316 1207.48 640.074 1209.71 639.669L1207.08 273.924Z" fill="#C25709"/>
<path d="M611.437 275.38L599.408 268.697L598.739 699.082H745.765C750.666 697.077 761.27 692.666 764.477 691.062C768.487 689.057 777.175 686.384 788.536 685.047C799.897 683.711 790.541 679.033 785.195 664.998C779.848 650.964 778.512 646.286 788.536 638.267C798.561 630.247 817.273 645.618 825.293 646.286C831.708 646.821 835.54 645.172 836.654 644.281L835.985 275.38H611.437Z" fill="#C25709"/>
<path d="M1454.86 275.128L1237.7 275.772C1236.63 388.97 1234.61 619.231 1235.12 634.697C1235.77 654.028 1240.92 654.673 1247.37 655.961C1253.81 657.25 1277.65 650.162 1287.32 649.518C1295.05 649.002 1349.4 649.732 1375.6 650.162C1373.45 654.243 1368.13 665.498 1364 677.871C1359.88 690.243 1364.86 695.914 1367.87 697.202H1457.44L1454.86 275.128Z" fill="#C25709"/>
<path d="M1580.54 243.852L1564.69 236.131L1565.7 722.026L1693.28 761.978C1693.71 569.735 1694.57 183.704 1694.57 177.518C1694.57 171.332 1618.35 218.291 1580.54 243.852Z" fill="#C25709"/>
<path d="M625.477 1009.04L366.107 1001.09L33.8325 1310.93L409.569 1317.01C412.061 1311.56 418.261 1298.22 423.121 1288.5C429.197 1276.35 448.825 1245.51 455.835 1236.16C462.845 1226.81 479.669 1178.21 489.483 1157.65C497.334 1141.2 536.06 1106.24 554.442 1090.82L625.477 1009.04Z" fill="#C25709"/>
<path d="M1122.72 968.845L724.552 970.714C722.215 974.297 716.794 981.93 713.803 983.799C710.812 985.669 694.175 1026.64 686.23 1046.89C823.315 1045.02 1098.33 1040.72 1101.69 1038.48C1105.9 1035.67 1124.12 983.332 1125.99 979.126C1127.49 975.761 1124.43 970.87 1122.72 968.845Z" fill="#C25709"/>
<path d="M1160.35 983.363C1160.08 979.883 1150.76 984.813 1146.13 987.713C1146.24 996.023 1146.1 1014.82 1144.62 1023.52C1142.78 1034.39 1144.12 1036.57 1145.29 1039.58C1146.23 1041.99 1155.72 1041.92 1160.35 1041.58C1160.46 1023.63 1160.62 986.843 1160.35 983.363Z" fill="#C25709"/>
<path d="M1432.27 984.038L1196.96 983.27L1193.89 1051.64C1197.9 1056.76 1206.18 1073.4 1207.2 1099.01C1208.48 1131.01 1192.35 1155.85 1171.61 1180.18C1150.87 1204.5 1101.45 1218.33 1101.45 1220.38C1101.45 1222.42 1094.03 1255.97 1091.72 1265.19C1089.88 1272.56 1082.25 1302.57 1078.66 1316.65L1385.67 1314.35L1432.27 984.038Z" fill="#C25709"/>
<path d="M1581.84 1104.31L1512.11 1015.61L1545.02 1285.05L1636.51 1357.57L1645.99 1359.24L1581.84 1104.31Z" fill="#C25709"/>
<path d="M1020.87 1221.97L555.047 1221.41C542.368 1244.57 516.017 1292.42 512.048 1298.59C508.079 1304.77 500.839 1314.76 497.715 1318.99L985.585 1315.13C987.055 1314.95 990.106 1313.7 990.547 1310.17C991.098 1305.76 1009.29 1255.59 1013.15 1248.98C1016.24 1243.69 1019.58 1228.76 1020.87 1221.97Z" fill="#C25709"/>
<path d="M743.75 820.261L721.693 818.993L670.48 871.981C673.1 873.502 679.708 876.849 685.185 878.066C690.661 879.283 721.102 879.756 735.637 879.841C738.764 874.348 744.866 861.992 744.258 856.516C743.649 851.04 743.666 830.064 743.75 820.261Z" fill="#C25709"/>
<path d="M1141.92 816.001L812.594 815.614C820.721 837.672 802.532 844.638 797.501 847.347C792.47 850.056 801.371 849.282 799.049 853.926C796.727 858.57 793.631 860.892 790.922 865.149C788.214 869.406 802.145 875.598 805.241 877.532C808.337 879.467 877.996 886.046 877.996 876.759C877.996 867.471 846.262 854.7 835.039 849.282C826.061 844.948 826.913 838.962 828.461 836.511L838.909 834.963C839.812 831.222 842.238 823.973 844.714 824.902C847.81 826.063 903.924 841.542 919.017 843.477C934.11 845.412 988.288 829.158 993.319 829.932C997.344 830.552 992.932 836.64 990.223 839.607L999.124 840.381V850.83L986.353 851.217L949.976 878.693L1124.12 879.08L1141.92 816.001Z" fill="#C25709"/>
<path d="M1203.84 859.731C1200.44 841.775 1181.78 827.74 1172.88 822.967L1156.63 876.372C1173.79 878.307 1207.25 877.688 1203.84 859.731Z" fill="#C25709"/>
<path d="M1295.56 766.853C1293.7 766.853 1189.52 767.885 1137.67 768.4C1165.53 766.466 1182.17 754.856 1194.17 750.986C1206.17 747.116 1238.29 745.955 1260.73 748.277C1283.18 750.599 1297.88 766.852 1295.56 766.853Z" fill="#C25709"/>
<path d="M1012.67 767.627L866.772 768.014C874.899 762.209 906.633 755.63 915.534 754.082C924.435 752.534 921.339 757.178 946.493 757.952C971.648 758.726 956.168 756.791 979 756.791C997.267 756.791 1009.06 764.015 1012.67 767.627Z" fill="#C25709"/>
</g>
<defs>
<clipPath id="clip0_1106_47">
<rect width="1919" height="1357" fill="white"/>
</clipPath>
</defs>
</svg>
